<svg width="32" height="32" viewBox="0 0 100 80" fill="#b45309" xmlns="http://www.w3.org/2000/svg">
  <circle cx="50" cy="32" r="28" stroke="#b45309" stroke-width="5" fill="none"/>
  <path d="M50 10 C30 10, 22 28, 28 40 C32 48, 42 52, 50 48 C58 44, 60 34, 54 28 C50 24, 44 26, 44 30 C44 34, 48 36, 50 34" stroke="#b45309" stroke-width="4.5" fill="none" stroke-linecap="round"/>
  <path d="M28 55 Q22 55, 16 62 Q14 66, 18 68 L50 68 Q55 68, 55 62" fill="#b45309"/>
  <path d="M18 62 Q12 50, 8 44" stroke="#b45309" stroke-width="3.5" fill="none" stroke-linecap="round"/>
  <path d="M24 58 Q20 48, 18 42" stroke="#b45309" stroke-width="3.5" fill="none" stroke-linecap="round"/>
</svg>
